<?xml version="1.0" encoding="UTF-8"?> <svg xmlns="http://www.w3.org/2000/svg" width="53" height="48" viewBox="0 0 53 48" fill="none"> <path d="M30.473 29.6077C30.473 29.6077 35.3031 28.2052 37.1878 28.3882C39.0726 28.5711 39.8432 27.0607 37.6955 25.5619C35.5479 24.063 29.587 24.7155 26.7795 24.9386C23.9725 25.1623 22.4496 23.9346 22.4496 23.9346C17.1943 20.2418 15.5225 19.2717 8.95924 20.5279C0.523011 22.1424 0.499152 26.6026 4.10788 29.5908C7.71661 32.579 11.2609 32.7329 11.2609 32.7329C11.2609 32.7329 19.1738 34.4884 21.9022 35.4709C24.6306 36.4534 37.6303 32.4349 40.9704 31.2219C44.3098 30.0082 52.0641 21.7728 50.6556 20.5466C49.2471 19.3204 47.702 19.351 44.6212 22.0899C41.541 24.8282 39.8066 25.8535 39.8066 25.8535" stroke="#E2E8EC" stroke-width="2" stroke-miterlimit="10" stroke-linecap="round" stroke-linejoin="round"></path> <path d="M38.7482 3.48381C38.4268 2.80207 37.9634 2.18428 37.3838 1.66503C36.8039 1.14423 36.1201 0.730362 35.3697 0.445924C34.5915 0.149808 33.7569 -0.0017612 32.9143 1.54396e-05C31.7321 1.54396e-05 30.5788 0.296556 29.5765 0.856687C29.3367 0.990679 29.1089 1.13785 28.8931 1.2982C28.6773 1.13785 28.4495 0.990679 28.2097 0.856687C27.2074 0.296556 26.0541 1.54396e-05 24.8719 1.54396e-05C24.0207 1.54396e-05 23.1958 0.149384 22.4165 0.445924C21.6636 0.731481 20.985 1.14224 20.4023 1.66503C19.8221 2.1837 19.3585 2.80163 19.038 3.48381C18.7047 4.19331 18.5344 4.94674 18.5344 5.72214C18.5344 6.45361 18.6975 7.21582 19.0212 7.99122C19.2921 8.63922 19.6806 9.31137 20.1769 9.99012C20.9634 11.0643 22.0449 12.1845 23.3877 13.3202C25.6128 15.2026 27.8165 16.503 27.91 16.5557L28.4783 16.8896C28.73 17.0368 29.0537 17.0368 29.3055 16.8896L29.8738 16.5557C29.9673 16.5008 32.1685 15.2026 34.3961 13.3202C35.7389 12.1845 36.8204 11.0643 37.6068 9.99012C38.1032 9.31137 38.494 8.63922 38.7626 7.99122C39.0863 7.21582 39.2494 6.45361 39.2494 5.72214C39.2518 4.94674 39.0815 4.19331 38.7482 3.48381V3.48381ZM28.8931 15.1521C28.8931 15.1521 20.3568 10.1417 20.3568 5.72214C20.3568 3.48381 22.3782 1.66943 24.8719 1.66943C26.6247 1.66943 28.145 2.56564 28.8931 3.87481C29.6412 2.56564 31.1615 1.66943 32.9143 1.66943C35.408 1.66943 37.4294 3.48381 37.4294 5.72214C37.4294 10.1417 28.8931 15.1521 28.8931 15.1521Z" fill="#E2E8EC"></path> </svg> 