<svg width="133" height="133" viewBox="0 0 133 133" fill="none" xmlns="http://www.w3.org/2000/svg">
<path fill-rule="evenodd" clip-rule="evenodd" d="M39.0594 0.39875C46.1462 0.0724999 48.4058 0 66.4583 0C84.5108 0 86.7704 0.0785416 93.8512 0.39875C100.932 0.718958 105.765 1.84875 109.995 3.48604C114.423 5.15958 118.441 7.77562 121.764 11.159C125.147 14.4758 127.757 18.4875 129.425 22.9221C131.068 27.1512 132.192 31.9846 132.518 39.0533C132.844 46.1523 132.917 48.4119 132.917 66.4583C132.917 84.5108 132.838 86.7704 132.518 93.8573C132.198 100.926 131.068 105.759 129.425 109.989C127.757 114.424 125.143 118.442 121.764 121.764C118.441 125.147 114.423 127.757 109.995 129.425C105.765 131.068 100.932 132.192 93.8633 132.518C86.7704 132.844 84.5108 132.917 66.4583 132.917C48.4058 132.917 46.1462 132.838 39.0594 132.518C31.9906 132.198 27.1573 131.068 22.9281 129.425C18.4931 127.757 14.4747 125.143 11.1529 121.764C7.77188 118.445 5.15544 114.428 3.48604 109.995C1.84875 105.765 0.725 100.932 0.39875 93.8633C0.0724999 86.7644 0 84.5048 0 66.4583C0 48.4058 0.0785416 46.1462 0.39875 39.0654C0.718958 31.9846 1.84875 27.1512 3.48604 22.9221C5.15791 18.488 7.77634 14.4717 11.159 11.1529C14.4761 7.77261 18.4904 5.15622 22.9221 3.48604C27.1512 1.84875 31.9846 0.725 39.0533 0.39875H39.0594ZM93.3135 12.3612C86.3052 12.041 84.2027 11.9746 66.4583 11.9746C48.714 11.9746 46.6115 12.041 39.6031 12.3612C33.1204 12.6573 29.6042 13.7387 27.26 14.651C24.1606 15.8594 21.9433 17.2913 19.6173 19.6173C17.4124 21.7624 15.7155 24.3738 14.651 27.26C13.7387 29.6042 12.6573 33.1204 12.3612 39.6031C12.041 46.6115 11.9746 48.714 11.9746 66.4583C11.9746 84.2027 12.041 86.3052 12.3612 93.3135C12.6573 99.7962 13.7387 103.312 14.651 105.657C15.7144 108.539 17.4121 111.155 19.6173 113.299C21.7621 115.505 24.3781 117.202 27.26 118.266C29.6042 119.178 33.1204 120.259 39.6031 120.555C46.6115 120.876 48.7079 120.942 66.4583 120.942C84.2087 120.942 86.3052 120.876 93.3135 120.555C99.7962 120.259 103.312 119.178 105.657 118.266C108.756 117.057 110.973 115.625 113.299 113.299C115.505 111.155 117.202 108.539 118.266 105.657C119.178 103.312 120.259 99.7962 120.555 93.3135C120.876 86.3052 120.942 84.2027 120.942 66.4583C120.942 48.714 120.876 46.6115 120.555 39.6031C120.259 33.1204 119.178 29.6042 118.266 27.26C117.057 24.1606 115.625 21.9433 113.299 19.6173C111.154 17.4125 108.543 15.7156 105.657 14.651C103.312 13.7387 99.7962 12.6573 93.3135 12.3612ZM57.9698 86.9456C62.7104 88.919 67.9892 89.1854 72.9044 87.6991C77.8196 86.2129 82.0663 83.0664 84.9193 78.7969C87.7723 74.5274 89.0545 69.3998 88.5469 64.29C88.0394 59.1802 85.7736 54.405 82.1365 50.7802C79.8179 48.4631 77.0144 46.6889 73.9278 45.5853C70.8413 44.4817 67.5484 44.0761 64.2863 44.3979C61.0242 44.7196 57.874 45.7606 55.0626 47.446C52.2511 49.1313 49.8482 51.4191 48.027 54.1445C46.2058 56.8699 45.0116 59.9653 44.5302 63.2077C44.0488 66.4501 44.2924 69.7588 45.2433 72.8958C46.1941 76.0328 47.8287 78.9199 50.0294 81.3493C52.23 83.7788 54.9419 85.6901 57.9698 86.9456ZM42.3037 42.3037C45.4758 39.1317 49.2415 36.6155 53.386 34.8988C57.5304 33.1822 61.9724 32.2986 66.4583 32.2986C70.9442 32.2986 75.3862 33.1822 79.5307 34.8988C83.6751 36.6155 87.4409 39.1317 90.6129 42.3037C93.7849 45.4758 96.3011 49.2415 98.0178 53.386C99.7345 57.5304 100.618 61.9724 100.618 66.4583C100.618 70.9442 99.7345 75.3862 98.0178 79.5307C96.3011 83.6751 93.7849 87.4409 90.6129 90.6129C84.2067 97.0191 75.5181 100.618 66.4583 100.618C57.3986 100.618 48.7099 97.0191 42.3037 90.6129C35.8976 84.2067 32.2986 75.5181 32.2986 66.4583C32.2986 57.3986 35.8976 48.7099 42.3037 42.3037ZM108.194 37.3858C108.98 36.6443 109.609 35.7527 110.045 34.7636C110.48 33.7745 110.712 32.7082 110.728 31.6277C110.744 30.5472 110.543 29.4746 110.136 28.4732C109.73 27.4719 109.127 26.5622 108.363 25.7982C107.599 25.0341 106.689 24.431 105.688 24.0248C104.687 23.6186 103.614 23.4174 102.534 23.4331C101.453 23.4489 100.387 23.6812 99.3977 24.1165C98.4086 24.5518 97.5169 25.181 96.7754 25.9671C95.3333 27.4958 94.5438 29.5264 94.5744 31.6277C94.6051 33.729 95.4534 35.7357 96.9395 37.2218C98.4255 38.7078 100.432 39.5562 102.534 39.5868C104.635 39.6174 106.665 38.8279 108.194 37.3858Z" fill="#C9C9C9"/>
</svg>
